<svg width="128" height="128" viewBox="0 0 128 128" fill="none" xmlns="http://www.w3.org/2000/svg">
<path d="M22.6667 0H105.333C117.867 0 128 10.3932 128 23.2479V104.752C128 117.607 117.867 128 105.333 128H22.6667C10.1333 128 0 117.607 0 104.752V23.2479C0 10.3932 10.1333 0 22.6667 0Z" fill="#001E36"/>
<path d="M28.8 89.7641V33.4769C28.8 33.094 28.96 32.8752 29.3333 32.8752C30.24 32.8752 31.0933 32.8752 32.32 32.8205C33.6 32.7658 34.9333 32.7658 36.3733 32.7111C37.8133 32.6564 39.36 32.6564 41.0133 32.6017C42.6667 32.547 44.2667 32.547 45.8667 32.547C50.24 32.547 53.8667 33.094 56.8533 34.2427C59.52 35.1726 61.9733 36.7043 64 38.7282C65.7067 40.4786 67.04 42.612 67.8933 44.9641C68.6933 47.2615 69.12 49.6137 69.12 52.0752C69.12 56.7795 68.0533 60.6632 65.92 63.7265C63.7867 66.7897 60.8 69.0872 57.3333 70.4C53.7067 71.7675 49.7067 72.2598 45.3333 72.2598C44.0533 72.2598 43.2 72.2598 42.6667 72.2051C42.1333 72.1504 41.3867 72.1504 40.3733 72.1504V89.7094C40.4267 90.0923 40.16 90.4205 39.7867 90.4752C39.7333 90.4752 39.68 90.4752 39.5733 90.4752H29.44C29.0133 90.4752 28.8 90.2564 28.8 89.7641ZM40.4267 43.4325V61.812C41.1733 61.8667 41.8667 61.9214 42.5067 61.9214H45.3333C47.4133 61.9214 49.4933 61.5932 51.4667 60.9368C53.1733 60.4444 54.6667 59.4051 55.84 58.0376C56.96 56.6701 57.4933 54.8103 57.4933 52.4034C57.5467 50.7077 57.12 49.012 56.2667 47.535C55.36 46.1128 54.08 45.0188 52.5333 44.4171C50.56 43.5966 48.4267 43.2684 46.24 43.3231C44.8533 43.3231 43.6267 43.3231 42.6133 43.3778C41.5467 43.3231 40.8 43.3778 40.4267 43.4325Z" fill="#31A8FF"/>
<path d="M102.4 58.4752C100.8 57.6 99.0933 56.9983 97.28 56.6154C95.3067 56.1778 93.3333 55.9043 91.3067 55.9043C90.24 55.8496 89.12 56.0137 88.1067 56.2872C87.4133 56.4513 86.8267 56.8342 86.4533 57.3812C86.1867 57.8188 86.0267 58.3658 86.0267 58.8581C86.0267 59.3504 86.24 59.8427 86.56 60.2803C87.04 60.8821 87.68 61.3744 88.3733 61.7573C89.6 62.4137 90.88 63.0154 92.16 63.5624C95.04 64.547 97.8133 65.9145 100.373 67.5556C102.133 68.7043 103.573 70.2359 104.587 72.0957C105.44 73.8462 105.867 75.7607 105.813 77.7299C105.867 80.3009 105.12 82.8718 103.733 85.0051C102.24 87.1932 100.16 88.8889 97.76 89.8735C95.1467 91.0222 91.9467 91.6239 88.1067 91.6239C85.6533 91.6239 83.2533 91.4051 80.8533 90.9128C78.9867 90.5846 77.12 89.9829 75.4133 89.1624C75.04 88.9436 74.7733 88.5607 74.8267 88.1231V78.6051C74.8267 78.441 74.88 78.2222 75.04 78.1128C75.2 78.0034 75.36 78.0581 75.52 78.1675C77.6 79.4256 79.7867 80.3008 82.1333 80.8479C84.16 81.3949 86.2933 81.6684 88.4267 81.6684C90.4533 81.6684 91.8933 81.3949 92.8533 80.9026C93.7067 80.5197 94.2933 79.5897 94.2933 78.6051C94.2933 77.8393 93.8667 77.1282 93.0133 76.4171C92.16 75.706 90.4 74.8855 87.7867 73.8462C85.0667 72.8615 82.56 71.5487 80.2133 69.9077C78.56 68.7043 77.1733 67.118 76.16 65.2581C75.3067 63.5077 74.88 61.5932 74.9333 59.6786C74.9333 57.3265 75.5733 55.0838 76.7467 53.0598C78.08 50.8718 80.0533 49.1214 82.3467 48.0274C84.8533 46.7145 88 46.1128 91.7867 46.1128C93.9733 46.1128 96.2133 46.2769 98.4 46.6051C100 46.8239 101.547 47.2615 102.987 47.8632C103.2 47.9179 103.413 48.1368 103.52 48.3556C103.573 48.5744 103.627 48.7932 103.627 49.012V57.9282C103.627 58.147 103.52 58.3658 103.36 58.4752C102.88 58.5846 102.613 58.5846 102.4 58.4752Z" fill="#31A8FF"/>
</svg>
