<svg width="128" height="128" viewBox="0 0 128 128" fill="none" xmlns="http://www.w3.org/2000/svg">
<path d="M22.6667 0H105.333C117.867 0 128 10.3932 128 23.2479V104.752C128 117.607 117.867 128 105.333 128H22.6667C10.1333 128 0 117.607 0 104.752V23.2479C0 10.3932 10.1333 0 22.6667 0Z" fill="#330000"/>
<path d="M61.8668 76.5811H42.0268L37.9734 89.4358C37.8668 89.9281 37.4401 90.2563 36.9601 90.2016H26.9334C26.3468 90.2016 26.1868 89.8734 26.3468 89.217L43.5201 38.5093C43.6801 37.9623 43.8401 37.3606 44.0534 36.7042C44.2668 35.5555 44.3734 34.352 44.3734 33.1486C44.3201 32.8751 44.5334 32.6016 44.8001 32.5469H58.6134C59.0401 32.5469 59.2534 32.711 59.3068 32.9845L78.7734 89.3264C78.9334 89.9281 78.7734 90.2016 78.2401 90.2016H67.0934C66.7201 90.2563 66.3468 89.9828 66.2401 89.5999L61.8668 76.5811ZM45.1201 65.4768H58.6668C58.3468 64.3281 57.9201 62.9606 57.4401 61.5384C56.9601 60.0614 56.4801 58.4751 56.0001 56.8341C55.4668 55.1384 54.9868 53.4973 54.4534 51.8016C53.9201 50.1059 53.4401 48.5196 53.0134 46.9332C52.5868 45.4016 52.2134 43.9794 51.8401 42.6666H51.7334C51.2534 45.0187 50.6668 47.3708 49.9201 49.723C49.1201 52.3486 48.3201 55.0837 47.4668 57.8187C46.7201 60.6084 45.9201 63.1794 45.1201 65.4768ZM90.6668 42.1196C88.9068 42.1743 87.2001 41.4632 85.9201 40.205C84.6934 38.8375 84.0534 37.0324 84.1068 35.1726C84.0534 33.3127 84.7468 31.5623 86.0268 30.3042C87.3068 29.0461 89.0134 28.3896 90.7734 28.3896C92.8534 28.3896 94.4534 29.0461 95.6268 30.3042C96.8001 31.617 97.4401 33.3674 97.3868 35.1726C97.4401 37.0324 96.8001 38.8375 95.5201 40.205C94.2934 41.5179 92.4801 42.229 90.6668 42.1196ZM84.6934 89.5999V47.4802C84.6934 46.9332 84.9068 46.7144 85.3868 46.7144H95.9468C96.4268 46.7144 96.6401 46.9879 96.6401 47.4802V89.5999C96.6401 90.2016 96.4268 90.4751 95.9468 90.4751H85.4934C84.9601 90.4751 84.6934 90.1469 84.6934 89.5999Z" fill="#FF9A00"/>
</svg>
