<svg width="98" height="104" viewBox="0 0 98 104" fill="none" xmlns="http://www.w3.org/2000/svg">
<path fill-rule="evenodd" clip-rule="evenodd" d="M0.366943 6.7376C0.371414 7.57358 0.540502 8.4005 0.864554 9.17113C1.18861 9.94176 1.66127 10.641 2.25557 11.229C2.84987 11.8169 3.55416 12.2821 4.32822 12.5978C5.10228 12.9136 5.93096 13.0738 6.76694 13.0693H59.8101C77.3205 11.8832 88.0555 34.2149 74.7435 46.0507C70.8352 49.3957 65.8574 51.0654 59.8101 51.0597H36.7701C35.9185 51.0285 35.0693 51.1692 34.2733 51.4736C33.4773 51.7779 32.7509 52.2396 32.1373 52.831C31.5238 53.4224 31.0358 54.1315 30.7024 54.9158C30.3691 55.7001 30.1973 56.5435 30.1973 57.3957C30.1973 58.2479 30.3691 59.0914 30.7024 59.8757C31.0358 60.66 31.5238 61.369 32.1373 61.9605C32.7509 62.5519 33.4773 63.0136 34.2733 63.3179C35.0693 63.6222 35.9185 63.763 36.7701 63.7317C37.5723 63.7317 62.4299 63.7317 62.2251 63.7317L85.1541 100.135C85.7672 101.166 86.6435 102.015 87.6933 102.596C88.743 103.176 89.9283 103.466 91.1275 103.437C96.9728 103.634 99.6608 97.5664 96.4608 92.8816L76.0661 60.4549C107.895 45.5131 94.4469 -0.933864 59.7931 0.431469H6.76694C5.08368 0.424613 3.46603 1.08383 2.26702 2.26526C1.068 3.44669 0.384956 5.05442 0.366943 6.7376Z" fill="black"/>
</svg>
