<svg width="2400" height="2000" viewBox="0 0 2400 2000" xmlns="http://www.w3.org/2000/svg">
  <path
    d="M 2342.71,1000.00 L 2342.14,1026.06 L 2340.43,1052.09 L 2337.59,1078.07 L 2333.61,1103.97 L 2328.50,1129.76 L 2322.27,1155.43 L 2314.91,1180.95 L 2306.45,1206.28 L 2296.88,1231.41 L 2286.22,1256.30 L 2274.48,1280.94 L 2261.67,1305.30 L 2247.79,1329.36 L 2232.88,1353.09 L 2216.93,1376.46 L 2199.97,1399.47 L 2182.01,1422.07 L 2163.08,1444.25 L 2143.18,1465.99 L 2122.35,1487.26 L 2100.59,1508.05 L 2077.94,1528.34 L 2054.41,1548.09 L 2030.03,1567.30 L 2004.82,1585.94 L 1978.81,1604.00 L 1952.03,1621.46 L 1924.49,1638.30 L 1896.23,1654.50 L 1867.28,1670.05 L 1837.67,1684.93 L 1807.41,1699.13 L 1776.55,1712.64 L 1745.12,1725.43 L 1713.15,1737.50 L 1680.66,1748.83 L 1647.69,1759.42 L 1614.28,1769.25 L 1580.45,1778.31 L 1546.25,1786.60 L 1511.70,1794.10 L 1476.84,1800.81 L 1441.70,1806.73 L 1406.32,1811.83 L 1370.74,1816.13 L 1334.98,1819.62 L 1299.09,1822.29 L 1263.11,1824.14 L 1227.06,1825.17 L 1190.98,1825.37 L 1154.91,1824.76 L 1118.89,1823.32 L 1082.95,1821.06 L 1047.12,1817.98 L 1011.45,1814.09 L 975.96,1809.38 L 940.70,1803.87 L 905.70,1797.56 L 870.99,1790.45 L 836.61,1782.55 L 802.59,1773.87 L 768.96,1764.43 L 735.77,1754.22 L 703.04,1743.26 L 670.80,1731.55 L 639.09,1719.12 L 607.94,1705.97 L 577.38,1692.12 L 547.44,1677.58 L 518.16,1662.36 L 489.55,1646.48 L 461.65,1629.96 L 434.48,1612.81 L 408.08,1595.05 L 382.47,1576.69 L 357.68,1557.77 L 333.72,1538.28 L 310.62,1518.26 L 288.42,1497.72 L 267.12,1476.69 L 246.75,1455.18 L 227.33,1433.21 L 208.88,1410.82 L 191.42,1388.01 L 174.97,1364.82 L 159.53,1341.27 L 145.14,1317.37 L 131.79,1293.16 L 119.51,1268.66 L 108.31,1243.88 L 98.20,1218.87 L 89.18,1193.64 L 81.27,1168.21 L 74.48,1142.62 L 68.80,1116.88 L 64.26,1091.03 L 60.85,1065.08 L 58.57,1039.08 L 57.43,1013.03 L 57.43,986.97 L 58.57,960.92 L 60.85,934.92 L 64.26,908.97 L 68.80,883.12 L 74.48,857.38 L 81.27,831.79 L 89.18,806.36 L 98.20,781.13 L 108.31,756.12 L 119.51,731.34 L 131.79,706.84 L 145.14,682.63 L 159.53,658.73 L 174.97,635.18 L 191.42,611.99 L 208.88,589.18 L 227.33,566.79 L 246.75,544.82 L 267.12,523.31 L 288.42,502.28 L 310.62,481.74 L 333.72,461.72 L 357.68,442.23 L 382.47,423.31 L 408.08,404.95 L 434.48,387.19 L 461.65,370.04 L 489.55,353.52 L 518.16,337.64 L 547.44,322.42 L 577.38,307.88 L 607.94,294.03 L 639.09,280.88 L 670.80,268.45 L 703.04,256.74 L 735.77,245.78 L 768.96,235.57 L 802.59,226.13 L 836.61,217.45 L 870.99,209.55 L 905.70,202.44 L 940.70,196.13 L 975.96,190.62 L 1011.45,185.91 L 1047.12,182.02 L 1082.95,178.94 L 1118.89,176.68 L 1154.91,175.24 L 1190.98,174.63 L 1227.06,174.83 L 1263.11,175.86 L 1299.09,177.71 L 1334.98,180.38 L 1370.74,183.87 L 1406.32,188.17 L 1441.70,193.27 L 1476.84,199.19 L 1511.70,205.90 L 1546.25,213.40 L 1580.45,221.69 L 1614.28,230.75 L 1647.69,240.58 L 1680.66,251.17 L 1713.15,262.50 L 1745.12,274.57 L 1776.55,287.36 L 1807.41,300.87 L 1837.67,315.07 L 1867.28,329.95 L 1896.23,345.50 L 1924.49,361.70 L 1952.03,378.54 L 1978.81,396.00 L 2004.82,414.06 L 2030.03,432.70 L 2054.41,451.91 L 2077.94,471.66 L 2100.59,491.95 L 2122.35,512.74 L 2143.18,534.01 L 2163.08,555.75 L 2182.01,577.93 L 2199.97,600.53 L 2216.93,623.54 L 2232.88,646.91 L 2247.79,670.64 L 2261.67,694.70 L 2274.48,719.06 L 2286.22,743.70 L 2296.88,768.59 L 2306.45,793.72 L 2314.91,819.05 L 2322.27,844.57 L 2328.50,870.24 L 2333.61,896.03 L 2337.59,921.93 L 2340.43,947.91 L 2342.14,973.94 L 2342.71,1000.00 Z"
    fill="none"
    stroke="#e76f51"
    stroke-width="4"
  />
</svg>
